<svg data-v-fde0c5aa="" xmlns="http://www.w3.org/2000/svg" viewBox="0 0 300 300" class="iconAbove"><!----><defs data-v-fde0c5aa=""><!----></defs><rect data-v-fde0c5aa="" fill="#00242B" x="0" y="0" width="300px" height="300px" class="logo-background-square"></rect><defs data-v-fde0c5aa=""><!----></defs><g data-v-fde0c5aa="" id="5fdb1e52-445d-4701-bdcb-4ed1d49cb934" fill="#7DE38D" transform="matrix(3.127255255096525,0,0,3.127255255096525,17.873466404166518,173.44791742946848)"><path d="M0.68 13.30L0.98 12.06L1.10 11.98Q1.37 12.13 1.66 12.24Q1.95 12.36 2.24 12.44Q2.52 12.52 2.80 12.56Q3.07 12.60 3.31 12.60L3.31 12.60Q3.93 12.60 4.28 12.34Q4.63 12.08 4.63 11.68L4.63 11.68Q4.63 11.40 4.47 11.22Q4.31 11.05 4.05 10.92Q3.79 10.79 3.45 10.70Q3.12 10.60 2.77 10.50Q2.41 10.39 2.08 10.25Q1.74 10.12 1.48 9.91Q1.22 9.69 1.06 9.39Q0.90 9.08 0.90 8.64L0.90 8.64Q0.90 8.14 1.11 7.70Q1.33 7.27 1.73 6.95Q2.13 6.63 2.70 6.45Q3.27 6.26 3.98 6.26L3.98 6.26Q4.16 6.26 4.39 6.28Q4.63 6.29 4.88 6.32Q5.14 6.35 5.40 6.40Q5.66 6.45 5.89 6.52L5.89 6.52L5.58 7.75L5.43 7.83Q5.23 7.73 4.99 7.66Q4.76 7.58 4.52 7.54Q4.29 7.49 4.06 7.47Q3.84 7.44 3.67 7.44L3.67 7.44Q3.07 7.44 2.73 7.68Q2.39 7.92 2.39 8.33L2.39 8.33Q2.39 8.61 2.56 8.79Q2.72 8.97 2.98 9.10Q3.25 9.22 3.59 9.31Q3.93 9.41 4.28 9.51Q4.63 9.62 4.98 9.75Q5.32 9.89 5.58 10.10Q5.84 10.32 6.01 10.62Q6.17 10.93 6.17 11.38L6.17 11.38Q6.17 11.89 5.95 12.33Q5.74 12.77 5.33 13.09Q4.93 13.41 4.36 13.60Q3.79 13.78 3.10 13.78L3.10 13.78Q2.54 13.78 1.90 13.66Q1.26 13.54 0.68 13.30L0.68 13.30ZM8.00 11.23L8.00 6.40L9.65 6.40L9.65 10.97Q9.65 11.32 9.75 11.60Q9.84 11.89 10.01 12.09Q10.19 12.30 10.42 12.41Q10.66 12.52 10.95 12.52L10.95 12.52Q11.20 12.52 11.43 12.44Q11.67 12.36 11.89 12.23Q12.11 12.09 12.30 11.92Q12.50 11.74 12.68 11.55L12.68 11.55L12.68 6.40L14.33 6.40L14.33 13.64L13.00 13.64L12.75 12.42Q12.50 12.65 12.22 12.89Q11.93 13.13 11.61 13.33Q11.29 13.53 10.93 13.65Q10.57 13.78 10.18 13.78L10.18 13.78Q9.73 13.78 9.34 13.60Q8.94 13.43 8.64 13.10Q8.35 12.77 8.17 12.30Q8.00 11.83 8.00 11.23L8.00 11.23ZM16.62 13.33L16.62 2.69L18.27 2.69L18.27 7.52Q18.57 7.25 18.88 7.02Q19.18 6.79 19.50 6.63Q19.82 6.46 20.16 6.36Q20.50 6.26 20.88 6.26L20.88 6.26Q21.53 6.26 22.05 6.55Q22.57 6.84 22.94 7.33Q23.30 7.81 23.50 8.44Q23.69 9.07 23.69 9.75L23.69 9.75Q23.69 10.59 23.39 11.32Q23.10 12.06 22.54 12.61Q21.98 13.15 21.15 13.47Q20.33 13.78 19.28 13.78L19.28 13.78Q18.72 13.78 18.03 13.68Q17.33 13.58 16.62 13.33L16.62 13.33ZM18.27 8.41L18.27 12.28Q18.64 12.45 19.00 12.52Q19.37 12.60 19.68 12.60L19.68 12.60Q20.25 12.60 20.68 12.38Q21.10 12.17 21.39 11.81Q21.68 11.44 21.82 10.98Q21.96 10.51 21.96 10.00L21.96 10.00Q21.96 9.52 21.84 9.07Q21.72 8.63 21.48 8.29Q21.23 7.94 20.88 7.73Q20.53 7.53 20.08 7.53L20.08 7.53Q19.70 7.53 19.25 7.71Q18.80 7.90 18.27 8.41L18.27 8.41ZM26.15 11.64L26.15 7.58L24.69 7.58L24.81 6.80Q25.35 6.67 25.68 6.49Q26.00 6.32 26.22 6.07Q26.43 5.82 26.60 5.47Q26.76 5.11 26.97 4.59L26.97 4.59L27.76 4.59L27.76 6.40L30.37 6.40L30.07 7.58L27.81 7.58L27.81 11.31Q27.81 11.65 27.90 11.88Q28 12.11 28.18 12.25Q28.36 12.39 28.60 12.46Q28.85 12.52 29.17 12.52L29.17 12.52Q29.47 12.52 29.77 12.47Q30.06 12.41 30.33 12.31L30.33 12.31L30.33 13.15Q29.87 13.46 29.34 13.62Q28.81 13.78 28.27 13.78L28.27 13.78Q27.23 13.78 26.69 13.22Q26.15 12.66 26.15 11.64L26.15 11.64ZM32.20 13.64L32.20 6.40L33.54 6.40L33.78 8.56Q33.87 8.38 33.97 8.19Q34.08 8.00 34.18 7.83Q34.28 7.66 34.37 7.51Q34.46 7.37 34.52 7.27L34.52 7.27Q34.67 7.06 34.85 6.87Q35.03 6.69 35.24 6.55Q35.45 6.42 35.70 6.34Q35.94 6.26 36.23 6.26L36.23 6.26Q36.43 6.26 36.63 6.31Q36.83 6.36 36.96 6.46L36.96 6.46L36.78 7.98Q36.66 7.95 36.50 7.94Q36.33 7.93 36.20 7.93L36.20 7.93Q35.77 7.93 35.42 8.06Q35.08 8.18 34.81 8.40Q34.53 8.63 34.30 8.93Q34.07 9.23 33.86 9.58L33.86 9.58L33.86 13.64L32.20 13.64ZM42.36 12.58L42.36 12.58Q42.18 12.73 41.93 12.94Q41.68 13.15 41.37 13.33Q41.07 13.52 40.71 13.65Q40.35 13.78 39.96 13.78L39.96 13.78Q39.55 13.78 39.21 13.63Q38.86 13.49 38.61 13.22Q38.35 12.96 38.20 12.60Q38.06 12.23 38.06 11.79L38.06 11.79Q38.06 11.32 38.24 10.88Q38.43 10.43 38.87 10.08Q39.31 9.73 40.04 9.52Q40.76 9.30 41.83 9.30L41.83 9.30L42.33 9.30L42.33 8.74Q42.33 8.44 42.23 8.20Q42.12 7.96 41.94 7.79Q41.75 7.62 41.50 7.53Q41.24 7.44 40.93 7.44L40.93 7.44Q40.68 7.44 40.40 7.50Q40.12 7.56 39.85 7.66Q39.57 7.77 39.31 7.91Q39.05 8.05 38.85 8.21L38.85 8.21L38.73 8.14L38.41 6.99Q39.24 6.56 39.95 6.41Q40.66 6.26 41.28 6.26L41.28 6.26Q41.92 6.26 42.43 6.39Q42.93 6.52 43.28 6.79Q43.63 7.06 43.81 7.48Q43.99 7.89 43.99 8.46L43.99 8.46L43.99 11.81Q43.99 11.91 44.01 12.03Q44.02 12.15 44.07 12.26Q44.13 12.37 44.23 12.45Q44.32 12.52 44.49 12.52L44.49 12.52Q44.58 12.52 44.72 12.50Q44.86 12.47 44.99 12.41L44.99 12.41L44.99 13.23Q44.63 13.48 44.26 13.63Q43.89 13.78 43.54 13.78L43.54 13.78Q43.27 13.78 43.07 13.68Q42.88 13.58 42.74 13.41Q42.60 13.24 42.51 13.03Q42.42 12.81 42.36 12.58ZM42.33 11.70L42.33 10.11L41.90 10.11Q41.19 10.11 40.75 10.21Q40.32 10.31 40.08 10.48Q39.84 10.66 39.76 10.89Q39.68 11.12 39.68 11.38L39.68 11.38Q39.68 11.66 39.76 11.87Q39.85 12.09 39.99 12.23Q40.13 12.37 40.32 12.45Q40.51 12.52 40.73 12.52L40.73 12.52Q40.89 12.52 41.07 12.49Q41.25 12.45 41.44 12.35Q41.64 12.26 41.86 12.10Q42.08 11.94 42.33 11.70L42.33 11.70ZM51.71 12.15L51.71 12.98Q51.22 13.37 50.63 13.58Q50.03 13.78 49.35 13.78L49.35 13.78Q48.58 13.78 47.97 13.52Q47.35 13.27 46.92 12.81Q46.49 12.36 46.26 11.73Q46.03 11.09 46.03 10.34L46.03 10.34Q46.03 9.44 46.34 8.69Q46.66 7.94 47.20 7.40Q47.74 6.86 48.48 6.56Q49.22 6.26 50.07 6.26L50.07 6.26Q50.25 6.26 50.46 6.28Q50.67 6.30 50.90 6.33Q51.12 6.36 51.33 6.42Q51.55 6.48 51.73 6.56L51.73 6.56L51.44 7.83L51.30 7.90Q51.17 7.81 51.01 7.73Q50.84 7.64 50.65 7.58Q50.46 7.52 50.25 7.48Q50.05 7.44 49.85 7.44L49.85 7.44Q49.41 7.44 49.03 7.62Q48.65 7.79 48.37 8.11Q48.08 8.44 47.92 8.92Q47.76 9.39 47.76 9.99L47.76 9.99Q47.76 10.62 47.93 11.09Q48.11 11.57 48.43 11.88Q48.74 12.20 49.17 12.36Q49.60 12.52 50.11 12.52L50.11 12.52Q50.42 12.52 50.83 12.45Q51.23 12.37 51.71 12.15L51.71 12.15ZM53.59 13.64L53.59 2.69L55.24 2.69L55.24 13.64L53.59 13.64ZM60.35 13.64L58.34 13.64L55.64 9.82L58.46 6.42L60.14 6.42L57.29 9.62L60.35 13.64ZM63.47 8.48L63.47 12.31Q63.64 12.39 63.84 12.45Q64.03 12.50 64.22 12.54Q64.40 12.57 64.57 12.58Q64.74 12.60 64.87 12.60L64.87 12.60Q65.39 12.60 65.82 12.39Q66.24 12.18 66.54 11.82Q66.84 11.46 67.00 10.99Q67.16 10.51 67.16 9.96L67.16 9.96Q67.16 9.45 67.03 9.00Q66.90 8.56 66.66 8.23Q66.42 7.90 66.08 7.71Q65.73 7.53 65.32 7.53L65.32 7.53Q64.83 7.53 64.36 7.79Q63.88 8.05 63.47 8.48L63.47 8.48ZM63.14 6.40L63.39 7.62Q63.64 7.38 63.92 7.14Q64.21 6.90 64.54 6.71Q64.87 6.51 65.25 6.39Q65.63 6.26 66.06 6.26L66.06 6.26Q66.73 6.26 67.25 6.55Q67.77 6.84 68.13 7.32Q68.50 7.81 68.69 8.43Q68.89 9.06 68.89 9.72L68.89 9.72Q68.89 10.60 68.56 11.34Q68.24 12.09 67.69 12.63Q67.14 13.17 66.39 13.48Q65.65 13.78 64.80 13.78L64.80 13.78Q64.64 13.78 64.46 13.77Q64.28 13.76 64.10 13.74Q63.93 13.72 63.77 13.69Q63.60 13.66 63.47 13.62L63.47 13.62L63.47 17.31L61.82 17.31L61.82 6.40L63.14 6.40ZM70.73 13.64L70.73 6.40L72.07 6.40L72.30 8.56Q72.40 8.38 72.50 8.19Q72.60 8.00 72.71 7.83Q72.81 7.66 72.90 7.51Q72.99 7.37 73.05 7.27L73.05 7.27Q73.19 7.06 73.37 6.87Q73.55 6.69 73.77 6.55Q73.98 6.42 74.22 6.34Q74.47 6.26 74.76 6.26L74.76 6.26Q74.96 6.26 75.15 6.31Q75.35 6.36 75.49 6.46L75.49 6.46L75.31 7.98Q75.19 7.95 75.02 7.94Q74.86 7.93 74.73 7.93L74.73 7.93Q74.29 7.93 73.95 8.06Q73.61 8.18 73.33 8.40Q73.06 8.63 72.83 8.93Q72.60 9.23 72.39 9.58L72.39 9.58L72.39 13.64L70.73 13.64ZM79.82 13.78L79.82 13.78Q78.97 13.78 78.32 13.49Q77.66 13.21 77.22 12.72Q76.77 12.23 76.55 11.59Q76.32 10.94 76.32 10.23L76.32 10.23Q76.32 9.40 76.61 8.68Q76.90 7.96 77.43 7.42Q77.96 6.88 78.70 6.57Q79.43 6.26 80.30 6.26L80.30 6.26Q81.16 6.26 81.81 6.55Q82.47 6.84 82.91 7.33Q83.36 7.82 83.59 8.47Q83.82 9.11 83.82 9.83L83.82 9.83Q83.82 10.66 83.52 11.39Q83.22 12.11 82.69 12.64Q82.15 13.17 81.42 13.48Q80.69 13.78 79.82 13.78ZM80.11 12.60L80.11 12.60Q80.55 12.60 80.91 12.42Q81.27 12.24 81.53 11.91Q81.79 11.59 81.94 11.14Q82.08 10.68 82.08 10.14L82.08 10.14Q82.08 9.60 81.94 9.12Q81.80 8.63 81.53 8.26Q81.27 7.89 80.88 7.67Q80.50 7.44 80.01 7.44L80.01 7.44Q79.57 7.44 79.21 7.63Q78.85 7.81 78.59 8.14Q78.33 8.47 78.19 8.92Q78.05 9.38 78.05 9.92L78.05 9.92Q78.05 10.46 78.19 10.94Q78.33 11.43 78.59 11.80Q78.86 12.17 79.24 12.38Q79.63 12.60 80.11 12.60Z"></path></g><defs data-v-fde0c5aa=""><!----></defs><g data-v-fde0c5aa="" id="827b5f6b-701e-4189-b499-1da2c361b899" stroke="none" fill="#7DE38D" transform="matrix(2.8575292805776384,0,0,2.8575292805776384,104.27953151075778,72.41929726613668)"><path d="M9.663 12.988L12.675 16l-6.338 6.337 3.326 3.326L16 19.325l3.012 3.012-6.337 6.338L16 32l6.337-6.337 3.326-3.326L32 16l-3.325-3.325-6.338 6.337L19.325 16l6.338-6.337-3.326-3.326L16 12.675l-3.012-3.012 6.337-6.338L16 0 9.663 6.337 6.337 9.663 0 16l3.325 3.325z"></path></g><!----></svg>